<svg width="95" height="145" viewBox="0 0 95 145" fill="none" xmlns="http://www.w3.org/2000/svg">
<path d="M29.4517 40.4999L47.3089 56.5713L65.166 40.4999V19.0713L47.3089 2.99986L29.4517 19.0713V40.4999Z" fill="#D7E0FF"/>
<path d="M29.4517 40.4999L47.3089 56.5713L65.166 40.4999V19.0713L47.3089 2.99986L29.4517 19.0713V40.4999Z" stroke="#4147D5" stroke-width="5" stroke-linecap="round" stroke-linejoin="round"/>
<path d="M29.4521 39.6108C20.0521 44.5338 12.3513 53.1907 7.64467 64.1257C2.93804 75.0608 1.51261 87.6071 3.60806 99.655C5.70351 111.703 11.192 122.518 19.1508 130.281C27.1095 138.043 37.053 142.281 47.3092 142.281C57.5655 142.281 67.509 138.043 75.4677 130.281C83.4264 122.518 88.915 111.703 91.0104 99.655C93.1059 87.6071 91.6804 75.0608 86.9738 64.1257C82.2672 53.1907 74.5664 44.5338 65.1664 39.6108" stroke="#4147D5" stroke-width="5" stroke-linecap="round" stroke-linejoin="round"/>
</svg>
