<svg width="52" height="52" viewBox="0 0 52 52" fill="none" xmlns="http://www.w3.org/2000/svg">
<path d="M35.6154 12.5383H4.84615C2.72198 12.5383 1 14.2603 1 16.3845V47.1537C1 49.2779 2.72198 50.9999 4.84615 50.9999H35.6154C37.7396 50.9999 39.4615 49.2779 39.4615 47.1537V16.3845C39.4615 14.2603 37.7396 12.5383 35.6154 12.5383Z" fill="#D7E0FF"/>
<path d="M35.6154 12.5383H4.84615C2.72198 12.5383 1 14.2603 1 16.3845V47.1537C1 49.2779 2.72198 50.9999 4.84615 50.9999H35.6154C37.7396 50.9999 39.4615 49.2779 39.4615 47.1537V16.3845C39.4615 14.2603 37.7396 12.5383 35.6154 12.5383Z" stroke="#4147D5" stroke-width="2" stroke-linecap="round" stroke-linejoin="round"/>
<path d="M12.5381 1H47.1535C48.1735 1 49.1519 1.40522 49.8731 2.12651C50.5942 2.84781 50.9996 3.82608 50.9996 4.84615V39.4615" stroke="#4147D5" stroke-width="2" stroke-linecap="round" stroke-linejoin="round"/>
<path d="M20.2305 22.1538V41.3846" stroke="#4147D5" stroke-width="2" stroke-linecap="round" stroke-linejoin="round"/>
<path d="M29.846 31.7693H10.6152" stroke="#4147D5" stroke-width="2" stroke-linecap="round" stroke-linejoin="round"/>
</svg>
