<svg width="130" height="136" viewBox="0 0 130 136" fill="none" xmlns="http://www.w3.org/2000/svg">
<path d="M103.462 83H117.885C120.435 83 122.881 84.0536 124.684 85.9289C126.487 87.8043 127.5 90.3478 127.5 93V133H103.462" fill="white"/>
<path d="M26.5385 133H2.5V93C2.5 90.3478 3.51305 87.8043 5.31628 85.9289C7.11952 84.0536 9.56523 83 12.1154 83H26.5385" fill="white"/>
<path d="M45.7689 28H84.2304C89.3307 28 94.2221 30.1071 97.8286 33.8579C101.435 37.6086 103.461 42.6957 103.461 48V133H26.5381V48C26.5381 42.6957 28.5642 37.6086 32.1706 33.8579C35.7771 30.1071 40.6685 28 45.7689 28Z" fill="#D7E0FF"/>
<path d="M45.7689 28H84.2304C89.3307 28 94.2221 30.1071 97.8286 33.8579C101.435 37.6086 103.461 42.6957 103.461 48V133H26.5381V48C26.5381 42.6957 28.5642 37.6086 32.1706 33.8579C35.7771 30.1071 40.6685 28 45.7689 28Z" stroke="#4147D5" stroke-width="5" stroke-linecap="round" stroke-linejoin="round"/>
<path d="M26.5385 133H2.5V93C2.5 90.3478 3.51305 87.8043 5.31628 85.9289C7.11952 84.0536 9.56523 83 12.1154 83H26.5385" stroke="#4147D5" stroke-width="5" stroke-linecap="round" stroke-linejoin="round"/>
<path d="M103.462 83H117.885C120.435 83 122.881 84.0536 124.684 85.9289C126.487 87.8043 127.5 90.3478 127.5 93V133H103.462" stroke="#4147D5" stroke-width="5" stroke-linecap="round" stroke-linejoin="round"/>
<path d="M26.5381 73H103.461" stroke="#4147D5" stroke-width="5" stroke-linecap="round" stroke-linejoin="round"/>
<path d="M65 63V83" stroke="#4147D5" stroke-width="5" stroke-linecap="round" stroke-linejoin="round"/>
<path d="M45.7695 28V23C45.7695 17.6957 47.7956 12.6086 51.4021 8.85786C55.0086 5.10714 59.9 3 65.0003 3C70.1006 3 74.992 5.10714 78.5985 8.85786C82.205 12.6086 84.2311 17.6957 84.2311 23V28" stroke="#4147D5" stroke-width="5" stroke-linecap="round" stroke-linejoin="round"/>
</svg>
