<svg width="48" height="38" viewBox="0 0 48 38" fill="none" xmlns="http://www.w3.org/2000/svg">
<path d="M24.2144 28.6786C28.6524 28.6786 32.2501 25.0809 32.2501 20.6429C32.2501 16.2049 28.6524 12.6072 24.2144 12.6072C19.7764 12.6072 16.1787 16.2049 16.1787 20.6429C16.1787 25.0809 19.7764 28.6786 24.2144 28.6786Z" fill="white"/>
<path fill-rule="evenodd" clip-rule="evenodd" d="M46.3825 9.18889C47.0521 9.85868 47.4286 10.7671 47.4286 11.7143V33.1429C47.4286 34.09 47.0521 34.9986 46.3825 35.6682C45.7129 36.3379 44.8043 36.7143 43.8571 36.7143H4.57143C3.62421 36.7143 2.71582 36.3379 2.04605 35.6682C1.37627 34.9986 1 34.09 1 33.1429V11.7143C1 10.7671 1.37627 9.85868 2.04605 9.18889C2.71582 8.51914 3.62421 8.14286 4.57143 8.14286H11.7143L17.0714 1H31.3571L36.7143 8.14286H43.8571C44.8043 8.14286 45.7129 8.51914 46.3825 9.18889ZM32.25 20.6429C32.25 25.0809 28.6523 28.6786 24.2143 28.6786C19.7763 28.6786 16.1786 25.0809 16.1786 20.6429C16.1786 16.2049 19.7763 12.6071 24.2143 12.6071C28.6523 12.6071 32.25 16.2049 32.25 20.6429Z" fill="#D7E0FF"/>
<path d="M24.2144 28.6786C28.6524 28.6786 32.2501 25.0809 32.2501 20.6429C32.2501 16.2049 28.6524 12.6072 24.2144 12.6072C19.7764 12.6072 16.1787 16.2049 16.1787 20.6429C16.1787 25.0809 19.7764 28.6786 24.2144 28.6786Z" stroke="#4147D5" stroke-linecap="round" stroke-linejoin="round"/>
<path d="M47.4286 11.7143C47.4286 10.7671 47.0521 9.85868 46.3825 9.18889C45.7129 8.51914 44.8043 8.14286 43.8571 8.14286H36.7143L31.3571 1H17.0714L11.7143 8.14286H4.57143C3.62421 8.14286 2.71582 8.51914 2.04605 9.18889C1.37627 9.85868 1 10.7671 1 11.7143V33.1429C1 34.09 1.37627 34.9986 2.04605 35.6682C2.71582 36.3379 3.62421 36.7143 4.57143 36.7143H43.8571C44.8043 36.7143 45.7129 36.3379 46.3825 35.6682C47.0521 34.9986 47.4286 34.09 47.4286 33.1429V11.7143Z" stroke="#4147D5" stroke-linecap="round" stroke-linejoin="round"/>
</svg>
