<svg width="100" height="101" viewBox="0 0 100 101" fill="none" xmlns="http://www.w3.org/2000/svg">
<rect y="0.717773" width="100" height="100" stroke="black"/>
<path d="M59.375 75.7178C71.4563 75.7178 81.25 65.924 81.25 53.8428C81.25 41.7616 71.4563 31.9678 59.375 31.9678C47.2937 31.9678 37.5 41.7616 37.5 53.8428C37.5 65.924 47.2937 75.7178 59.375 75.7178Z" stroke="black" stroke-width="1.5" stroke-linecap="round" stroke-linejoin="round"/>
<path d="M81.25 25.7178L76.7292 16.6719C76.21 15.6337 75.4117 14.7606 74.4242 14.1505C73.4362 13.5404 72.2983 13.2174 71.1375 13.2178H47.6125C46.4517 13.2174 45.3137 13.5404 44.3258 14.1505C43.3383 14.7606 42.54 15.6337 42.0208 16.6719L37.5 25.7178H9.375C7.71742 25.7178 6.12767 26.3763 4.95558 27.5484C3.78348 28.7204 3.125 30.3102 3.125 31.9678V81.9678C3.125 83.6253 3.78348 85.2153 4.95558 86.3874C6.12767 87.5594 7.71742 88.2178 9.375 88.2178H90.625C92.2825 88.2178 93.8725 87.5594 95.0446 86.3874C96.2167 85.2153 96.875 83.6253 96.875 81.9678V31.9678C96.875 30.3102 96.2167 28.7204 95.0446 27.5484C93.8725 26.3763 92.2825 25.7178 90.625 25.7178H81.25Z" stroke="black" stroke-width="1.5" stroke-linecap="round" stroke-linejoin="round"/>
<path d="M17.1875 41.3428C16.3245 41.3428 15.625 40.6432 15.625 39.7803C15.625 38.9173 16.3245 38.2178 17.1875 38.2178" stroke="black" stroke-width="1.5"/>
<path d="M17.1875 41.3428C18.0505 41.3428 18.75 40.6432 18.75 39.7803C18.75 38.9173 18.0505 38.2178 17.1875 38.2178" stroke="black" stroke-width="1.5"/>
<path d="M21.875 25.7178V19.4678" stroke="black" stroke-width="1.5" stroke-linecap="round" stroke-linejoin="round"/>
</svg>
