<svg width="52" height="52" viewBox="0 0 52 52" fill="none" xmlns="http://www.w3.org/2000/svg">
<path d="M49.0764 24.0769H33.6917C33.1816 24.0769 32.6925 24.2795 32.3318 24.6402C31.9712 25.0008 31.7686 25.4899 31.7686 26V49.0769C31.7686 49.5869 31.9712 50.0761 32.3318 50.4367C32.6925 50.7974 33.1816 51 33.6917 51H49.0764C49.329 51 49.579 50.9502 49.8124 50.8536C50.0457 50.7569 50.2577 50.6153 50.4363 50.4367C50.6148 50.2581 50.7565 50.0461 50.8531 49.8128C50.9498 49.5795 50.9995 49.3294 50.9995 49.0769V26C50.9995 25.7474 50.9498 25.4974 50.8531 25.2641C50.7565 25.0307 50.6148 24.8187 50.4363 24.6402C50.2577 24.4616 50.0457 24.3199 49.8124 24.2233C49.579 24.1266 49.329 24.0769 49.0764 24.0769Z" fill="#F0F0F0"/>
<path d="M49.0764 1H33.6917C33.1816 1 32.6925 1.20261 32.3318 1.56326C31.9712 1.9239 31.7686 2.41304 31.7686 2.92308V10.6538C31.7686 11.1639 31.9712 11.653 32.3318 12.0137C32.6925 12.3743 33.1816 12.5769 33.6917 12.5769H49.0764C49.329 12.5769 49.579 12.5272 49.8124 12.4305C50.0457 12.3339 50.2577 12.1922 50.4363 12.0137C50.6148 11.8351 50.7565 11.6231 50.8531 11.3898C50.9498 11.1565 50.9995 10.9064 50.9995 10.6538V2.92308C50.9995 2.67053 50.9498 2.42047 50.8531 2.18715C50.7565 1.95383 50.6148 1.74183 50.4363 1.56326C50.2577 1.38468 50.0457 1.24303 49.8124 1.14639C49.579 1.04974 49.329 1 49.0764 1Z" fill="#F0F0F0"/>
<path d="M18.3079 1H2.9231C2.41306 1 1.92391 1.20261 1.56326 1.56326C1.20261 1.9239 1 2.41304 1 2.92308V26C1 26.51 1.20261 26.9992 1.56326 27.3598C1.92391 27.7205 2.41306 27.9231 2.9231 27.9231H18.3079C18.8179 27.9231 19.307 27.7205 19.6677 27.3598C20.0283 26.9992 20.231 26.51 20.231 26V2.92308C20.231 2.41304 20.0283 1.9239 19.6677 1.56326C19.307 1.20261 18.8179 1 18.3079 1Z" fill="#F0F0F0"/>
<path d="M18.3079 39.4231H2.9231C2.41306 39.4231 1.92391 39.6257 1.56326 39.9864C1.20261 40.347 1 40.8361 1 41.3462V49.0769C1 49.587 1.20261 50.0761 1.56326 50.4368C1.92391 50.7974 2.41306 51 2.9231 51H18.3079C18.8179 51 19.307 50.7974 19.6677 50.4368C20.0283 50.0761 20.231 49.587 20.231 49.0769V41.3462C20.231 40.8361 20.0283 40.347 19.6677 39.9864C19.307 39.6257 18.8179 39.4231 18.3079 39.4231Z" fill="#F0F0F0"/>
<path d="M49.0764 24.0769H33.6917C33.1816 24.0769 32.6925 24.2795 32.3318 24.6402C31.9712 25.0008 31.7686 25.4899 31.7686 26V49.0769C31.7686 49.5869 31.9712 50.0761 32.3318 50.4367C32.6925 50.7974 33.1816 51 33.6917 51H49.0764C49.329 51 49.579 50.9502 49.8124 50.8536C50.0457 50.7569 50.2577 50.6153 50.4363 50.4367C50.6148 50.2581 50.7565 50.0461 50.8531 49.8128C50.9498 49.5795 50.9995 49.3294 50.9995 49.0769V26C50.9995 25.7474 50.9498 25.4974 50.8531 25.2641C50.7565 25.0307 50.6148 24.8187 50.4363 24.6402C50.2577 24.4616 50.0457 24.3199 49.8124 24.2233C49.579 24.1266 49.329 24.0769 49.0764 24.0769Z" stroke="#4147D5" stroke-width="2" stroke-linecap="round" stroke-linejoin="round"/>
<path d="M49.0764 1H33.6917C33.1816 1 32.6925 1.20261 32.3318 1.56326C31.9712 1.9239 31.7686 2.41304 31.7686 2.92308V10.6538C31.7686 11.1639 31.9712 11.653 32.3318 12.0137C32.6925 12.3743 33.1816 12.5769 33.6917 12.5769H49.0764C49.329 12.5769 49.579 12.5272 49.8124 12.4305C50.0457 12.3339 50.2577 12.1922 50.4363 12.0137C50.6148 11.8351 50.7565 11.6231 50.8531 11.3898C50.9498 11.1565 50.9995 10.9064 50.9995 10.6538V2.92308C50.9995 2.67053 50.9498 2.42047 50.8531 2.18715C50.7565 1.95383 50.6148 1.74183 50.4363 1.56326C50.2577 1.38468 50.0457 1.24303 49.8124 1.14639C49.579 1.04974 49.329 1 49.0764 1Z" stroke="#4147D5" stroke-width="2" stroke-linecap="round" stroke-linejoin="round"/>
<path d="M18.3079 1H2.9231C2.41306 1 1.92391 1.20261 1.56326 1.56326C1.20261 1.9239 1 2.41304 1 2.92308V26C1 26.51 1.20261 26.9992 1.56326 27.3598C1.92391 27.7205 2.41306 27.9231 2.9231 27.9231H18.3079C18.8179 27.9231 19.307 27.7205 19.6677 27.3598C20.0283 26.9992 20.231 26.51 20.231 26V2.92308C20.231 2.41304 20.0283 1.9239 19.6677 1.56326C19.307 1.20261 18.8179 1 18.3079 1Z" stroke="#4147D5" stroke-width="2" stroke-linecap="round" stroke-linejoin="round"/>
<path d="M18.3079 39.4231H2.9231C2.41306 39.4231 1.92391 39.6257 1.56326 39.9864C1.20261 40.347 1 40.8361 1 41.3462V49.0769C1 49.587 1.20261 50.0761 1.56326 50.4368C1.92391 50.7974 2.41306 51 2.9231 51H18.3079C18.8179 51 19.307 50.7974 19.6677 50.4368C20.0283 50.0761 20.231 49.587 20.231 49.0769V41.3462C20.231 40.8361 20.0283 40.347 19.6677 39.9864C19.307 39.6257 18.8179 39.4231 18.3079 39.4231Z" stroke="#4147D5" stroke-width="2" stroke-linecap="round" stroke-linejoin="round"/>
</svg>
