<svg width="97" height="136" viewBox="0 0 97 136" fill="none" xmlns="http://www.w3.org/2000/svg">
<path d="M94.1667 123C94.1667 125.652 93.2887 128.196 91.7259 130.071C90.1631 131.946 88.0435 133 85.8333 133H10.8333C8.6232 133 6.50358 131.946 4.94078 130.071C3.37797 128.196 2.5 125.652 2.5 123V13C2.5 10.3478 3.37797 7.8043 4.94078 5.92893C6.50358 4.05357 8.6232 3 10.8333 3H65L94.1667 38V123Z" fill="#D7E0FF"/>
<path d="M94.1667 123C94.1667 125.652 93.2887 128.196 91.7259 130.071C90.1631 131.946 88.0435 133 85.8333 133H10.8333C8.6232 133 6.50358 131.946 4.94078 130.071C3.37797 128.196 2.5 125.652 2.5 123V13C2.5 10.3478 3.37797 7.8043 4.94078 5.92893C6.50358 4.05357 8.6232 3 10.8333 3H65L94.1667 38V123Z" stroke="#4147D5" stroke-width="5" stroke-linecap="round" stroke-linejoin="round"/>
<path d="M24.1504 34.5C24.1504 37.55 25.1601 40.4751 26.9573 42.6317C28.7545 44.7884 31.1921 46 33.7337 46C36.2754 46 38.7129 44.7884 40.5102 42.6317C42.3074 40.4751 43.3171 37.55 43.3171 34.5C43.3171 31.45 42.3074 28.5249 40.5102 26.3683C38.7129 24.2116 36.2754 23 33.7337 23C31.1921 23 28.7545 24.2116 26.9573 26.3683C25.1601 28.5249 24.1504 31.45 24.1504 34.5Z" fill="white"/>
<path d="M19.167 57.4C20.6118 54.0287 22.752 51.1575 25.3837 49.06C27.9337 47.06 30.817 46.02 33.742 46.02C36.667 46.02 39.5503 47.06 42.1003 49.06C44.6587 51.05 46.792 53.92 48.317 57.4" fill="white"/>
<path d="M19.167 57.4C20.6118 54.0287 22.752 51.1575 25.3837 49.06C27.9337 47.06 30.817 46.02 33.742 46.02C36.667 46.02 39.5503 47.06 42.1003 49.06C44.6587 51.05 46.792 53.92 48.317 57.4" stroke="#4147D5" stroke-width="5" stroke-linecap="round" stroke-linejoin="round"/>
<path d="M24.1504 34.5C24.1504 37.55 25.1601 40.4751 26.9573 42.6317C28.7545 44.7884 31.1921 46 33.7337 46C36.2754 46 38.7129 44.7884 40.5102 42.6317C42.3074 40.4751 43.3171 37.55 43.3171 34.5C43.3171 31.45 42.3074 28.5249 40.5102 26.3683C38.7129 24.2116 36.2754 23 33.7337 23C31.1921 23 28.7545 24.2116 26.9573 26.3683C25.1601 28.5249 24.1504 31.45 24.1504 34.5Z" stroke="#4147D5" stroke-width="5" stroke-linecap="round" stroke-linejoin="round"/>
<path d="M19.167 83H77.5003" stroke="#4147D5" stroke-width="5" stroke-linecap="round"/>
<path d="M19.167 108H52.5003" stroke="#4147D5" stroke-width="5" stroke-linecap="round"/>
</svg>
