<svg width="52" height="52" viewBox="0 0 52 52" fill="none" xmlns="http://www.w3.org/2000/svg">
<path d="M26 51C32.6304 51 38.9893 48.3661 43.6777 43.6777C48.3661 38.9893 51 32.6304 51 26C51 19.3696 48.3661 13.0107 43.6777 8.32233C38.9893 3.63392 32.6304 1 26 1C19.3696 1 13.0107 3.63392 8.32233 8.32233C3.63392 13.0107 1 19.3696 1 26C1 32.6304 3.63392 38.9893 8.32233 43.6777C13.0107 48.3661 19.3696 51 26 51Z" fill="#D7E0FF"/>
<path d="M26 51C32.6304 51 38.9893 48.3661 43.6777 43.6777C48.3661 38.9893 51 32.6304 51 26C51 19.3696 48.3661 13.0107 43.6777 8.32233C38.9893 3.63392 32.6304 1 26 1C19.3696 1 13.0107 3.63392 8.32233 8.32233C3.63392 13.0107 1 19.3696 1 26C1 32.6304 3.63392 38.9893 8.32233 43.6777C13.0107 48.3661 19.3696 51 26 51Z" stroke="#4147D5" stroke-width="2" stroke-linecap="round" stroke-linejoin="round"/>
<path d="M19.2695 19.2694C19.2683 18.2731 19.4884 17.289 19.9139 16.3881C20.3394 15.4873 20.9597 14.6922 21.7299 14.0603C22.5002 13.4284 23.4012 12.9755 24.3679 12.7343C25.3345 12.4931 26.3427 12.4696 27.3195 12.6656C28.2959 12.8601 29.2171 13.2686 30.0168 13.8617C30.8165 14.4547 31.4748 15.2176 31.9445 16.0955C32.4141 16.9734 32.6834 17.9444 32.733 18.9388C32.7825 19.9331 32.6111 20.9261 32.2311 21.8463C31.7212 23.0767 30.8577 24.1282 29.7499 24.8676C28.6421 25.6071 27.3399 26.0012 26.008 26.0002V30.4887" stroke="#4147D5" stroke-width="2" stroke-linecap="round" stroke-linejoin="round"/>
<path d="M25.9996 39.3039C25.8734 39.3039 25.7483 39.2791 25.6317 39.2307C25.515 39.1824 25.409 39.1116 25.3197 39.0223C25.2304 38.933 25.1596 38.827 25.1113 38.7104C25.063 38.5937 25.0381 38.4687 25.0381 38.3424C25.0381 38.2161 25.063 38.0911 25.1113 37.9744C25.1596 37.8578 25.2304 37.7518 25.3197 37.6625C25.409 37.5732 25.515 37.5024 25.6317 37.4541C25.7483 37.4057 25.8734 37.3809 25.9996 37.3809" stroke="#4147D5" stroke-width="2" stroke-linecap="round" stroke-linejoin="round"/>
<path d="M26 39.3039C26.1263 39.3039 26.2513 39.2791 26.368 39.2307C26.4846 39.1824 26.5906 39.1116 26.6799 39.0223C26.7692 38.933 26.84 38.827 26.8883 38.7104C26.9367 38.5937 26.9615 38.4687 26.9615 38.3424C26.9615 38.2161 26.9367 38.0911 26.8883 37.9744C26.84 37.8578 26.7692 37.7518 26.6799 37.6625C26.5906 37.5732 26.4846 37.5024 26.368 37.4541C26.2513 37.4057 26.1263 37.3809 26 37.3809" stroke="#4147D5" stroke-width="2" stroke-linecap="round" stroke-linejoin="round"/>
</svg>
