<svg width="140" height="140" viewBox="0 0 140 140" fill="none" xmlns="http://www.w3.org/2000/svg">
<path d="M30 70V43.7C30.0781 38.5303 31.1755 33.4268 33.2294 28.682C35.2832 23.9372 38.2532 19.6442 41.969 16.0492C45.6848 12.4541 50.0735 9.6276 54.8836 7.73158C59.6936 5.83555 64.8306 4.90729 70 4.99997C75.1694 4.90729 80.3064 5.83555 85.1164 7.73158C89.9265 9.6276 94.3152 12.4541 98.031 16.0492C101.747 19.6442 104.717 23.9372 106.771 28.682C108.824 33.4268 109.922 38.5303 110 43.7V70" stroke="#4147D5" stroke-width="5" stroke-linecap="round" stroke-linejoin="round"/>
<path d="M15 55H25C26.3261 55 27.5979 55.5268 28.5355 56.4645C29.4732 57.4021 30 58.6739 30 60V90C30 91.3261 29.4732 92.5979 28.5355 93.5355C27.5979 94.4732 26.3261 95 25 95H15C12.3478 95 9.8043 93.9464 7.92893 92.0711C6.05357 90.1957 5 87.6522 5 85V65C5 62.3478 6.05357 59.8043 7.92893 57.9289C9.8043 56.0536 12.3478 55 15 55Z" fill="#D7E0FF"/>
<path d="M125 95H115C113.674 95 112.402 94.4732 111.464 93.5355C110.527 92.5979 110 91.3261 110 90V60C110 58.6739 110.527 57.4021 111.464 56.4645C112.402 55.5268 113.674 55 115 55H125C127.652 55 130.196 56.0536 132.071 57.9289C133.946 59.8043 135 62.3478 135 65V85C135 87.6522 133.946 90.1957 132.071 92.0711C130.196 93.9464 127.652 95 125 95Z" fill="#D7E0FF"/>
<path d="M90 122.5C95.3043 122.5 100.391 120.393 104.142 116.642C107.893 112.891 110 107.804 110 102.5V80" stroke="#4147D5" stroke-width="5" stroke-linecap="round" stroke-linejoin="round"/>
<path d="M90 122.5C90 125.815 88.683 128.995 86.3388 131.339C83.9946 133.683 80.8152 135 77.5 135H62.5C59.1848 135 56.0054 133.683 53.6612 131.339C51.317 128.995 50 125.815 50 122.5C50 119.185 51.317 116.005 53.6612 113.661C56.0054 111.317 59.1848 110 62.5 110H77.5C80.8152 110 83.9946 111.317 86.3388 113.661C88.683 116.005 90 119.185 90 122.5Z" fill="#D7E0FF"/>
<path d="M15 55H25C26.3261 55 27.5979 55.5268 28.5355 56.4645C29.4732 57.4021 30 58.6739 30 60V90C30 91.3261 29.4732 92.5979 28.5355 93.5355C27.5979 94.4732 26.3261 95 25 95H15C12.3478 95 9.8043 93.9464 7.92893 92.0711C6.05357 90.1957 5 87.6522 5 85V65C5 62.3478 6.05357 59.8043 7.92893 57.9289C9.8043 56.0536 12.3478 55 15 55Z" stroke="#4147D5" stroke-width="5" stroke-linecap="round" stroke-linejoin="round"/>
<path d="M125 95H115C113.674 95 112.402 94.4732 111.464 93.5355C110.527 92.5979 110 91.3261 110 90V60C110 58.6739 110.527 57.4021 111.464 56.4645C112.402 55.5268 113.674 55 115 55H125C127.652 55 130.196 56.0536 132.071 57.9289C133.946 59.8043 135 62.3478 135 65V85C135 87.6522 133.946 90.1957 132.071 92.0711C130.196 93.9464 127.652 95 125 95Z" stroke="#4147D5" stroke-width="5" stroke-linecap="round" stroke-linejoin="round"/>
<path d="M90 122.5C90 125.815 88.683 128.995 86.3388 131.339C83.9946 133.683 80.8152 135 77.5 135H62.5C59.1848 135 56.0054 133.683 53.6612 131.339C51.317 128.995 50 125.815 50 122.5C50 119.185 51.317 116.005 53.6612 113.661C56.0054 111.317 59.1848 110 62.5 110H77.5C80.8152 110 83.9946 111.317 86.3388 113.661C88.683 116.005 90 119.185 90 122.5Z" stroke="#4147D5" stroke-width="5" stroke-linecap="round" stroke-linejoin="round"/>
</svg>
