<svg width="50" height="50" viewBox="0 0 50 50" fill="none" xmlns="http://www.w3.org/2000/svg">
<g clip-path="url(#clip0_450_1008)">
<path d="M39.2857 42.8571C39.2857 43.8043 38.9094 44.7128 38.2397 45.3825C37.5699 46.0523 36.6615 46.4286 35.7143 46.4286H3.57143C2.62423 46.4286 1.71582 46.0523 1.04605 45.3825C0.376274 44.7128 0 43.8043 0 42.8571V3.57143C0 2.62423 0.376274 1.71582 1.04605 1.04605C1.71582 0.376274 2.62423 0 3.57143 0H26.7857L39.2857 12.5V42.8571Z" fill="#F0F0F0"/>
<path d="M39.2857 42.8571C39.2857 43.8043 38.9094 44.7128 38.2397 45.3825C37.5699 46.0523 36.6615 46.4286 35.7143 46.4286H3.57143C2.62423 46.4286 1.71582 46.0523 1.04605 45.3825C0.376274 44.7128 0 43.8043 0 42.8571V3.57143C0 2.62423 0.376274 1.71582 1.04605 1.04605C1.71582 0.376274 2.62423 0 3.57143 0H26.7857L39.2857 12.5V42.8571Z" stroke="#4147D5" stroke-width="2" stroke-linecap="round" stroke-linejoin="round"/>
<path d="M17.1536 15.2537C16.7463 15.2537 16.3557 15.4155 16.0677 15.7035C15.7797 15.9915 15.6179 16.3821 15.6179 16.7894V21.1037H11.3072C10.9005 21.1037 10.5104 21.265 10.2225 21.5522C9.93465 21.8394 9.77243 22.2291 9.77148 22.6358V27.6179C9.77148 28.4679 10.4608 29.1537 11.3072 29.1537H15.6179V33.4644C15.6179 34.3144 16.3072 35.0001 17.1536 35.0001H22.1358C22.5431 35.0001 22.9337 34.8383 23.2217 34.5503C23.5097 34.2623 23.6715 33.8717 23.6715 33.4644V29.1537H27.9822C28.3895 29.1537 28.7801 28.9919 29.0681 28.7039C29.3561 28.4159 29.5179 28.0252 29.5179 27.6179V22.6358C29.5179 22.2285 29.3561 21.8379 29.0681 21.5499C28.7801 21.2619 28.3895 21.1001 27.9822 21.1001H23.6715V16.7929C23.6715 16.3856 23.5097 15.995 23.2217 15.707C22.9337 15.419 22.5431 15.2572 22.1358 15.2572H17.1536V15.2537Z" fill="white"/>
<path d="M17.1536 15.2537C16.7463 15.2537 16.3557 15.4155 16.0677 15.7035C15.7797 15.9915 15.6179 16.3821 15.6179 16.7894V21.1037H11.3072C10.9005 21.1037 10.5104 21.265 10.2225 21.5522C9.93465 21.8394 9.77243 22.2291 9.77148 22.6358V27.6179C9.77148 28.4679 10.4608 29.1537 11.3072 29.1537H15.6179V33.4644C15.6179 34.3144 16.3072 35.0001 17.1536 35.0001H22.1358C22.5431 35.0001 22.9337 34.8383 23.2217 34.5503C23.5097 34.2623 23.6715 33.8717 23.6715 33.4644V29.1537H27.9822C28.3895 29.1537 28.7801 28.9919 29.0681 28.7039C29.3561 28.4159 29.5179 28.0252 29.5179 27.6179V22.6358C29.5179 22.2285 29.3561 21.8379 29.0681 21.5499C28.7801 21.2619 28.3895 21.1001 27.9822 21.1001H23.6715V16.7929C23.6715 16.3856 23.5097 15.995 23.2217 15.707C22.9337 15.419 22.5431 15.2572 22.1358 15.2572H17.1536V15.2537Z" stroke="#4147D5" stroke-width="2" stroke-linecap="round" stroke-linejoin="round"/>
</g>
<defs>
<clipPath id="clip0_450_1008">
<rect width="50" height="50" fill="white"/>
</clipPath>
</defs>
</svg>
