<svg width="130" height="116" viewBox="0 0 130 116" fill="none" xmlns="http://www.w3.org/2000/svg">
<path d="M78.2695 54.2L21.7311 113L2.5003 93" stroke="#4147D5" stroke-width="5" stroke-linecap="round" stroke-linejoin="round"/>
<path d="M43.3652 90.5L26.5383 73" stroke="#4147D5" stroke-width="5" stroke-linecap="round" stroke-linejoin="round"/>
<path d="M98.6538 3C91.0034 3 83.6662 6.16071 78.2565 11.7868C72.8468 17.4129 69.8077 25.0435 69.8077 33C69.8077 40.9565 72.8468 48.5871 78.2565 54.2132C83.6662 59.8393 91.0034 63 98.6538 63C106.304 63 113.641 59.8393 119.051 54.2132C124.461 48.5871 127.5 40.9565 127.5 33C127.5 25.0435 124.461 17.4129 119.051 11.7868C113.641 6.16071 106.304 3 98.6538 3Z" stroke="#4147D5" stroke-width="5" stroke-linecap="round" stroke-linejoin="round"/>
</svg>
