<svg width="25" height="25" viewBox="0 0 25 25" fill="none" xmlns="http://www.w3.org/2000/svg">
<path fill-rule="evenodd" clip-rule="evenodd" d="M12.5 0C17.1878 0 21.0942 3.9006 21.0942 8.58145C21.0942 10.1091 20.5683 11.6157 19.8333 12.9808C19.0955 14.3511 18.1188 15.6306 17.1485 16.7199C16.1763 17.8114 15.194 18.7303 14.4287 19.3795C14.0464 19.7038 13.7118 19.9662 13.4538 20.1521C13.3264 20.2439 13.207 20.3246 13.104 20.3864C13.0539 20.4164 12.9928 20.451 12.9278 20.481C12.8954 20.4958 12.8489 20.5158 12.7934 20.5335C12.7497 20.5474 12.6406 20.5801 12.5 20.5801C12.3583 20.5801 12.2483 20.5469 12.2045 20.5328C12.1486 20.5147 12.1019 20.4946 12.0695 20.4796C12.0044 20.4492 11.9433 20.4144 11.8932 20.384C11.7902 20.3217 11.6708 20.2403 11.5435 20.1478C11.2857 19.9607 10.9513 19.6964 10.5692 19.37C9.80422 18.7169 8.82236 17.7932 7.85065 16.6989C6.88087 15.6067 5.90466 14.326 5.16707 12.9589C4.43265 11.5976 3.90587 10.0971 3.90587 8.58145C3.90587 3.9006 7.81226 0 12.5 0ZM12.5 11.1443C11.0825 11.1443 9.93334 9.99689 9.93334 8.58145C9.93334 7.166 11.0825 6.01855 12.5 6.01855C13.9176 6.01855 15.0667 7.166 15.0667 8.58145C15.0667 9.99689 13.9176 11.1443 12.5 11.1443ZM18.0419 18.1359C18.3719 17.7655 18.702 17.3776 19.026 16.9745H21.4277C21.7853 16.9745 22.1086 17.1873 22.2495 17.5156L24.9277 23.7557C25.0461 24.0315 25.0178 24.3483 24.8524 24.5988C24.687 24.8493 24.4064 25 24.106 25H0.894093C0.593551 25 0.313114 24.8493 0.14767 24.5988C-0.0177758 24.3483 -0.0460947 24.0315 0.0722952 23.7557L2.75058 17.5156C2.89147 17.1873 3.21472 16.9745 3.57239 16.9745H5.99597C6.3126 17.3681 6.63492 17.7476 6.95695 18.1102C8.13989 19.4425 9.33538 20.5672 10.2661 21.3618C10.731 21.7589 11.1363 22.0791 11.4468 22.3044C11.6004 22.416 11.7414 22.512 11.8608 22.5842C11.9191 22.6195 11.9871 22.6581 12.0576 22.691C12.0927 22.7074 12.1418 22.7284 12.1996 22.747C12.2454 22.7618 12.357 22.7954 12.4999 22.7954C12.6417 22.7954 12.7524 22.7624 12.7981 22.7479C12.8556 22.7295 12.9045 22.7086 12.9395 22.6924C13.0099 22.6599 13.0778 22.6217 13.1362 22.5867C13.2556 22.5151 13.3967 22.4197 13.5504 22.309C13.861 22.0853 14.2664 21.7675 14.7316 21.3729C15.6626 20.5831 16.8586 19.4643 18.0419 18.1359Z" fill="black"/>
</svg>
