<svg width="53" height="52" viewBox="0 0 53 52" fill="none" xmlns="http://www.w3.org/2000/svg">
<path d="M35.8654 47.1538C35.8654 48.1739 35.4602 49.1522 34.7389 49.8735C34.0176 50.5948 33.0393 51 32.0192 51H5.09615C4.07609 51 3.09781 50.5948 2.37651 49.8735C1.65522 49.1522 1.25 48.1739 1.25 47.1538V4.84615C1.25 3.82609 1.65522 2.84781 2.37651 2.12651C3.09781 1.40522 4.07609 1 5.09615 1H32.0192C33.0393 1 34.0176 1.40522 34.7389 2.12651C35.4602 2.84781 35.8654 3.82609 35.8654 4.84615V47.1538Z" fill="#F0F0F0"/>
<path d="M35.8654 39.4615V47.1538C35.8654 48.1739 35.4602 49.1522 34.7389 49.8735C34.0176 50.5948 33.0393 51 32.0192 51H5.09615C4.07609 51 3.09781 50.5948 2.37651 49.8735C1.65522 49.1522 1.25 48.1739 1.25 47.1538V4.84615C1.25 3.82609 1.65522 2.84781 2.37651 2.12651C3.09781 1.40522 4.07609 1 5.09615 1H32.0192C33.0393 1 34.0176 1.40522 34.7389 2.12651C35.4602 2.84781 35.8654 3.82609 35.8654 4.84615V12.5385" stroke="#4147D5" stroke-width="2" stroke-linecap="round" stroke-linejoin="round"/>
<path d="M24.3271 26H51.2502" stroke="#4147D5" stroke-width="2" stroke-linecap="round" stroke-linejoin="round"/>
<path d="M43.5566 18.3076L51.2489 25.9999L43.5566 33.6922" stroke="#4147D5" stroke-width="2" stroke-linecap="round" stroke-linejoin="round"/>
</svg>
