<svg width="106" height="146" viewBox="0 0 106 146" fill="none" xmlns="http://www.w3.org/2000/svg">
<path d="M102.37 109.948C100.972 108.763 99.329 108.046 97.6148 107.87C69.6628 104.888 41.5404 104.888 13.5884 107.87C11.3021 108.107 9.16254 109.301 7.5559 111.239C5.94926 113.176 4.98132 115.729 4.82675 118.436L4.50293 124.321C4.59545 126.279 4.71572 128.236 4.82675 130.205C5.15982 135.794 8.86986 140.268 13.5884 140.76C42.4083 143.746 68.7949 143.746 97.6148 140.76C99.3727 140.585 100.983 139.852 102.333 138.715C99.375 134.749 97.746 129.641 97.7536 124.353C97.7536 118.83 99.5022 113.787 102.37 109.948Z" fill="white"/>
<path d="M102.472 110.036C103.647 78.623 103.332 47.1565 101.529 15.7848C101.38 13.0824 100.42 10.5314 98.8227 8.59057C97.2251 6.64974 95.0942 5.4464 92.8132 5.19693C66.4415 2.26769 39.8955 2.26769 13.5238 5.19693C11.2428 5.4464 9.11193 6.64974 7.51434 8.59057C5.91675 10.5314 4.95727 13.0824 4.80842 15.7848C2.73039 51.929 2.62532 88.1939 4.49385 124.354L4.82692 118.437C4.98149 115.73 5.94943 113.177 7.55607 111.239C9.16272 109.302 11.3022 108.107 13.5885 107.871C41.5405 104.888 69.663 104.888 97.615 107.871C99.4284 108.068 101.094 108.833 102.472 110.036Z" fill="#D7E0FF"/>
<path d="M102.472 110.036C103.647 78.623 103.332 47.1565 101.529 15.7848C101.38 13.0824 100.42 10.5314 98.8227 8.59057C97.2251 6.64974 95.0942 5.4464 92.8132 5.19693C66.4415 2.26769 39.8955 2.26769 13.5238 5.19693C11.2428 5.4464 9.11193 6.64974 7.51434 8.59057C5.91675 10.5314 4.95727 13.0824 4.80842 15.7848C2.73039 51.929 2.62532 88.1939 4.49385 124.354L4.82692 118.437C4.98149 115.73 5.94943 113.177 7.55607 111.239C9.16272 109.302 11.3022 108.107 13.5885 107.871C41.5405 104.888 69.663 104.888 97.615 107.871C99.4284 108.068 101.094 108.833 102.472 110.036Z" stroke="#4147D5" stroke-width="5" stroke-linecap="round" stroke-linejoin="round"/>
<path d="M102.37 109.948C100.972 108.763 99.329 108.046 97.6148 107.87C69.6628 104.888 41.5404 104.888 13.5884 107.87C11.3021 108.107 9.16254 109.301 7.5559 111.239C5.94926 113.176 4.98132 115.729 4.82675 118.436L4.50293 124.321C4.59545 126.279 4.71572 128.236 4.82675 130.205C5.15982 135.794 8.86986 140.268 13.5884 140.76C42.4083 143.746 68.7949 143.746 97.6148 140.76C99.3727 140.585 100.983 139.852 102.333 138.715C99.375 134.749 97.746 129.641 97.7536 124.353C97.7536 118.83 99.5022 113.787 102.37 109.948Z" stroke="#4147D5" stroke-width="5" stroke-linecap="round" stroke-linejoin="round"/>
<path d="M62.6991 47.1323H83.701L61.3945 84.3539H85.0056" stroke="#4147D5" stroke-width="5" stroke-linecap="round" stroke-linejoin="round"/>
<path d="M21.5449 61.5382L31.204 27.248C31.4455 26.3894 31.9099 25.6428 32.5312 25.1146C33.1525 24.5863 33.8989 24.3032 34.6642 24.3057C36.2278 24.3057 37.6249 25.4979 38.1152 27.2589L47.7835 61.5382M25.0422 49.1237H44.2863" stroke="#4147D5" stroke-width="5" stroke-linecap="round" stroke-linejoin="round"/>
</svg>
