<svg width="81" height="136" viewBox="0 0 81 136" fill="none" xmlns="http://www.w3.org/2000/svg">
<path d="M69.3337 3H11.0003C8.79019 3 6.67057 4.05357 5.10777 5.92893C3.54497 7.8043 2.66699 10.3478 2.66699 13V123C2.66699 125.652 3.54497 128.196 5.10777 130.071C6.67057 131.946 8.79019 133 11.0003 133H69.3337C71.5438 133 73.6634 131.946 75.2262 130.071C76.789 128.196 77.667 125.652 77.667 123V13C77.667 10.3478 76.789 7.8043 75.2262 5.92893C73.6634 4.05357 71.5438 3 69.3337 3Z" fill="#D7E0FF"/>
<path d="M69.3337 3H11.0003C8.79019 3 6.67057 4.05357 5.10777 5.92893C3.54497 7.8043 2.66699 10.3478 2.66699 13V123C2.66699 125.652 3.54497 128.196 5.10777 130.071C6.67057 131.946 8.79019 133 11.0003 133H69.3337C71.5438 133 73.6634 131.946 75.2262 130.071C76.789 128.196 77.667 125.652 77.667 123V13C77.667 10.3478 76.789 7.8043 75.2262 5.92893C73.6634 4.05357 71.5438 3 69.3337 3Z" stroke="#4147D5" stroke-width="5" stroke-linecap="round" stroke-linejoin="round"/>
<path d="M36 108H44.3333" stroke="#4147D5" stroke-width="5" stroke-linecap="round" stroke-linejoin="round"/>
</svg>
