<svg width="40" height="40" viewBox="0 0 40 40" fill="none" xmlns="http://www.w3.org/2000/svg">
<g clip-path="url(#clip0_590_806)">
<path d="M38.6015 33.9229L31.0318 26.4349C38.1776 15.7281 31.0531 1.30091 18.208 0.465905C5.36262 -0.369095 -3.56954 13.0144 2.12996 24.5562C4.94912 30.2651 10.7655 33.8776 17.1325 33.8741C20.441 33.8774 23.6743 32.8886 26.415 31.0354L34.001 38.6214C35.2736 39.8864 37.3288 39.8864 38.6015 38.6214C39.9328 37.3382 39.9328 35.2062 38.6015 33.9229ZM17.1325 5.22691C26.2373 5.22724 31.928 15.0839 27.3751 22.9687C22.8223 30.8536 11.4413 30.8531 6.88912 22.9677C5.85412 21.1747 5.30779 19.1412 5.30496 17.0707C5.30479 10.5359 10.5976 5.23591 17.1325 5.22691Z" fill="black"/>
</g>
<defs>
<clipPath id="clip0_590_806">
<rect width="40" height="40" fill="white"/>
</clipPath>
</defs>
</svg>
