<svg width="50" height="50" viewBox="0 0 50 50" fill="none" xmlns="http://www.w3.org/2000/svg">
<g clip-path="url(#clip0_450_1147)">
<path fill-rule="evenodd" clip-rule="evenodd" d="M48.2147 24.9999C48.2147 28.0485 47.6143 31.0672 46.4476 33.8837C45.281 36.7001 43.571 39.2593 41.4154 41.4149C39.2598 43.5706 36.7006 45.2805 33.8841 46.4471C31.0677 47.6138 28.049 48.2142 25.0004 48.2142C21.9519 48.2142 18.9332 47.6138 16.1167 46.4471C13.3002 45.2805 10.7411 43.5706 8.58544 41.4149C6.42979 39.2593 4.71984 36.7001 3.55322 33.8837C2.38659 31.0672 1.78613 28.0485 1.78613 24.9999C1.78613 18.8431 4.23192 12.9385 8.58544 8.58495C12.939 4.23143 18.8436 1.78564 25.0004 1.78564C31.1572 1.78564 37.0619 4.23143 41.4154 8.58495C45.7689 12.9385 48.2147 18.8431 48.2147 24.9999ZM32.1433 23.2142C32.1433 25.5822 31.2026 27.8532 29.5282 29.5277C27.8537 31.2021 25.5827 32.1428 23.2147 32.1428C20.8467 32.1428 18.5757 31.2021 16.9013 29.5277C15.2268 27.8532 14.2861 25.5822 14.2861 23.2142C14.2861 20.8462 15.2268 18.5752 16.9013 16.9008C18.5757 15.2263 20.8467 14.2856 23.2147 14.2856C25.5827 14.2856 27.8537 15.2263 29.5282 16.9008C31.2026 18.5752 32.1433 20.8462 32.1433 23.2142Z" fill="#D7E0FF"/>
<path d="M23.2147 32.1428C25.5827 32.1428 27.8537 31.2021 29.5282 29.5277C31.2026 27.8532 32.1433 25.5822 32.1433 23.2142C32.1433 20.8462 31.2026 18.5752 29.5282 16.9008C27.8537 15.2263 25.5827 14.2856 23.2147 14.2856C20.8467 14.2856 18.5757 15.2263 16.9013 16.9008C15.2268 18.5752 14.2861 20.8462 14.2861 23.2142C14.2861 25.5822 15.2268 27.8532 16.9013 29.5277C18.5757 31.2021 20.8467 32.1428 23.2147 32.1428Z" fill="white"/>
<path d="M23.2147 32.1428C25.5827 32.1428 27.8537 31.2021 29.5282 29.5277C31.2026 27.8532 32.1433 25.5822 32.1433 23.2142C32.1433 20.8462 31.2026 18.5752 29.5282 16.9008C27.8537 15.2263 25.5827 14.2856 23.2147 14.2856C20.8467 14.2856 18.5757 15.2263 16.9013 16.9008C15.2268 18.5752 14.2861 20.8462 14.2861 23.2142C14.2861 25.5822 15.2268 27.8532 16.9013 29.5277C18.5757 31.2021 20.8467 32.1428 23.2147 32.1428Z" stroke="#4147D5" stroke-width="2" stroke-linecap="round" stroke-linejoin="round"/>
<path d="M25.0004 48.2142C28.049 48.2142 31.0677 47.6138 33.8841 46.4471C36.7006 45.2805 39.2598 43.5706 41.4154 41.4149C43.571 39.2593 45.281 36.7001 46.4476 33.8837C47.6143 31.0672 48.2147 28.0485 48.2147 24.9999C48.2147 21.9514 47.6143 18.9327 46.4476 16.1162C45.281 13.2997 43.571 10.7406 41.4154 8.58495C39.2598 6.42931 36.7006 4.71935 33.8841 3.55273C31.0677 2.3861 28.049 1.78564 25.0004 1.78564C18.8436 1.78564 12.939 4.23143 8.58544 8.58495C4.23192 12.9385 1.78613 18.8431 1.78613 24.9999C1.78613 31.1567 4.23192 37.0614 8.58544 41.4149C12.939 45.7684 18.8436 48.2142 25.0004 48.2142Z" stroke="#4147D5" stroke-width="2" stroke-linecap="round" stroke-linejoin="round"/>
<path d="M35.7147 35.7142L29.5361 29.5356" stroke="#4147D5" stroke-width="2" stroke-linecap="round" stroke-linejoin="round"/>
</g>
<defs>
<clipPath id="clip0_450_1147">
<rect width="50" height="50" fill="white"/>
</clipPath>
</defs>
</svg>
