<svg width="52" height="52" viewBox="0 0 52 52" fill="none" xmlns="http://www.w3.org/2000/svg">
<path d="M14.4945 9.25L15.6463 5.28571C15.8405 4.61451 16.1823 4.03718 16.6267 3.62933C17.0712 3.22148 17.5978 3.00213 18.1373 3H20.3338C20.8733 3.00213 21.3998 3.22148 21.8443 3.62933C22.2888 4.03718 22.6306 4.61451 22.8248 5.28571L23.9766 9.25L27.8873 12.25L31.048 11.6071C31.5743 11.5119 32.11 11.6274 32.5869 11.939C33.0639 12.2506 33.4606 12.7442 33.7266 13.3571L34.798 15.8571C35.0726 16.4798 35.1991 17.1989 35.1608 17.9194C35.1226 18.6399 34.9214 19.328 34.5838 19.8929L32.6284 23.2143V29.2143L34.6373 32.5357C34.9749 33.1006 35.1761 33.7887 35.2144 34.5092C35.2527 35.2297 35.1262 35.9488 34.8516 36.5714L33.7802 39.0714C33.5141 39.6843 33.1174 40.178 32.6405 40.4896C32.1636 40.8012 31.6279 40.9167 31.1016 40.8214L27.9409 40.1786L24.0302 43.1786L22.8784 47.1429C22.6842 47.8141 22.3424 48.3914 21.8979 48.7992C21.4534 49.2071 20.9269 49.4264 20.3873 49.4286H18.1373C17.5978 49.4264 17.0712 49.2071 16.6267 48.7992C16.1823 48.3914 15.8405 47.8141 15.6463 47.1429L14.4945 43.1786L10.5838 40.1786L7.42305 40.8214C6.89675 40.9167 6.3611 40.8012 5.88416 40.4896C5.40722 40.178 5.01052 39.6843 4.74448 39.0714L3.67305 36.5714C3.3985 35.9488 3.272 35.2297 3.31026 34.5092C3.34852 33.7887 3.54973 33.1006 3.88733 32.5357L5.84269 29.2143V23.2143L3.83376 19.8929C3.49615 19.328 3.29495 18.6399 3.25669 17.9194C3.21843 17.1989 3.34493 16.4798 3.61948 15.8571L4.6909 13.3571C4.95695 12.7442 5.35365 12.2506 5.83059 11.939C6.30753 11.6274 6.84318 11.5119 7.36948 11.6071L10.5302 12.25L14.4945 9.25ZM13.8784 26.2143C13.8784 28.1087 14.4428 29.9255 15.4475 31.2651C16.4521 32.6046 17.8147 33.3571 19.2355 33.3571C20.6563 33.3571 22.019 32.6046 23.0236 31.2651C24.0283 29.9255 24.5927 28.1087 24.5927 26.2143C24.5927 24.3199 24.0283 22.5031 23.0236 21.1635C22.019 19.824 20.6563 19.0714 19.2355 19.0714C17.8147 19.0714 16.4521 19.824 15.4475 21.1635C14.4428 22.5031 13.8784 24.3199 13.8784 26.2143Z" fill="#F0F0F0"/>
<path d="M18.5854 7.73077L20.3867 3.46154C20.6905 2.73871 21.2249 2.11696 21.9201 1.67774C22.6152 1.23852 23.4386 1.00229 24.2825 1H27.7175C28.5614 1.00229 29.3848 1.23852 30.0799 1.67774C30.7751 2.11696 31.3095 2.73871 31.6133 3.46154L33.4146 7.73077L39.5306 10.9615L44.4737 10.2692C45.2968 10.1667 46.1345 10.2911 46.8804 10.6266C47.6263 10.9622 48.2467 11.4938 48.6628 12.1538L50.3384 14.8462C50.7678 15.5167 50.9656 16.2911 50.9058 17.067C50.8459 17.8429 50.5313 18.584 50.0033 19.1923L46.9453 22.7692V29.2308L50.087 32.8077C50.615 33.416 50.9297 34.1571 50.9895 34.933C51.0494 35.7089 50.8515 36.4833 50.4222 37.1538L48.7465 39.8462C48.3305 40.5062 47.7101 41.0378 46.9642 41.3734C46.2183 41.7089 45.3806 41.8333 44.5575 41.7308L39.6144 41.0385L33.4984 44.2692L31.6971 48.5385C31.3933 49.2613 30.8589 49.883 30.1637 50.3223C29.4686 50.7615 28.6451 50.9977 27.8013 51H24.2825C23.4386 50.9977 22.6152 50.7615 21.9201 50.3223C21.2249 49.883 20.6905 49.2613 20.3867 48.5385L18.5854 44.2692L12.4694 41.0385L7.52628 41.7308C6.7032 41.8333 5.86549 41.7089 5.1196 41.3734C4.3737 41.0378 3.7533 40.5062 3.33723 39.8462L1.66161 37.1538C1.23224 36.4833 1.03441 35.7089 1.09424 34.933C1.15407 34.1571 1.46875 33.416 1.99673 32.8077L5.05474 29.2308V22.7692L1.91295 19.1923C1.38496 18.584 1.07029 17.8429 1.01046 17.067C0.950631 16.2911 1.14846 15.5167 1.57783 14.8462L3.25345 12.1538C3.66952 11.4938 4.28992 10.9622 5.03582 10.6266C5.78171 10.2911 6.61942 10.1667 7.4425 10.2692L12.3856 10.9615L18.5854 7.73077ZM17.6219 26C17.6219 28.0401 18.5046 29.9967 20.0758 31.4393C21.647 32.8819 23.778 33.6923 26 33.6923C28.222 33.6923 30.353 32.8819 31.9242 31.4393C33.4954 29.9967 34.3781 28.0401 34.3781 26C34.3781 23.9599 33.4954 22.0033 31.9242 20.5607C30.353 19.1181 28.222 18.3077 26 18.3077C23.778 18.3077 21.647 19.1181 20.0758 20.5607C18.5046 22.0033 17.6219 23.9599 17.6219 26Z" stroke="#4147D5" stroke-width="2" stroke-linecap="round" stroke-linejoin="round"/>
</svg>
