<svg width="95" height="95" viewBox="0 0 95 95" fill="none" xmlns="http://www.w3.org/2000/svg">
<path d="M47.4284 54.5715C57.2906 54.5715 65.2856 46.5765 65.2856 36.7143C65.2856 26.8521 57.2906 18.8572 47.4284 18.8572C37.5662 18.8572 29.5713 26.8521 29.5713 36.7143C29.5713 46.5765 37.5662 54.5715 47.4284 54.5715Z" fill="white"/>
<path d="M77.9381 82.4257C69.7788 89.5449 59.1072 93.8571 47.4282 93.8571C35.7491 93.8571 25.0773 89.5449 16.918 82.4257C23.1887 72.1471 34.507 65.2856 47.4282 65.2856C60.3493 65.2856 71.6674 72.1471 77.9381 82.4257Z" fill="white"/>
<path fill-rule="evenodd" clip-rule="evenodd" d="M16.9184 82.4257C23.1891 72.1471 34.5075 65.2857 47.4286 65.2857C60.3496 65.2857 71.6679 72.1471 77.9386 82.4257C87.6936 73.9143 93.8571 61.3914 93.8571 47.4286C93.8571 21.7868 73.0707 1 47.4286 1C21.7868 1 1 21.7868 1 47.4286C1 61.3914 7.16357 73.9143 16.9184 82.4257ZM47.4286 54.5714C57.2908 54.5714 65.2857 46.5765 65.2857 36.7143C65.2857 26.8521 57.2908 18.8571 47.4286 18.8571C37.5664 18.8571 29.5714 26.8521 29.5714 36.7143C29.5714 46.5765 37.5664 54.5714 47.4286 54.5714Z" fill="#D7E0FF"/>
<path d="M47.4284 54.5715C57.2906 54.5715 65.2856 46.5765 65.2856 36.7143C65.2856 26.8521 57.2906 18.8572 47.4284 18.8572C37.5662 18.8572 29.5713 26.8521 29.5713 36.7143C29.5713 46.5765 37.5662 54.5715 47.4284 54.5715Z" stroke="#4147D5" stroke-linecap="round" stroke-linejoin="round"/>
<path d="M16.9287 82.4286C20.1161 77.1964 24.5959 72.8721 29.9374 69.8721C35.2788 66.8714 41.3022 65.2954 47.4287 65.2954C53.5552 65.2954 59.5786 66.8714 64.9201 69.8721C70.2617 72.8721 74.741 77.1964 77.9289 82.4286" stroke="#4147D5" stroke-linecap="round" stroke-linejoin="round"/>
<path d="M47.4286 93.8571C73.0707 93.8571 93.8571 73.0707 93.8571 47.4286C93.8571 21.7868 73.0707 1 47.4286 1C21.7868 1 1 21.7868 1 47.4286C1 73.0707 21.7868 93.8571 47.4286 93.8571Z" stroke="#4147D5" stroke-linecap="round" stroke-linejoin="round"/>
</svg>
