<svg width="81" height="136" viewBox="0 0 81 136" fill="none" xmlns="http://www.w3.org/2000/svg">
<path d="M61.3337 123V105.5H61.2337C55.092 110.404 47.8772 113.014 40.5003 113C32.8337 113 25.7003 110.24 19.767 105.5H19.667V123C19.667 125.652 20.545 128.196 22.1078 130.071C23.6706 131.946 25.7902 133 28.0003 133H53.0003C55.2105 133 57.3301 131.946 58.8929 130.071C60.4557 128.196 61.3337 125.652 61.3337 123Z" fill="#D7E0FF"/>
<path d="M40.5 113C50.4456 113 59.9839 108.259 67.0165 99.8198C74.0491 91.3807 78 79.9347 78 68C78 56.0653 74.0491 44.6193 67.0165 36.1802C59.9839 27.7411 50.4456 23 40.5 23C30.5544 23 21.0161 27.7411 13.9835 36.1802C6.95088 44.6193 3 56.0653 3 68C3 79.9347 6.95088 91.3807 13.9835 99.8198C21.0161 108.259 30.5544 113 40.5 113Z" fill="white"/>
<path d="M61.3337 13V30.5H61.2337C55.092 25.5963 47.8772 22.9864 40.5003 23C32.8337 23 25.7003 25.76 19.767 30.5H19.667V13C19.667 10.3478 20.545 7.8043 22.1078 5.92893C23.6706 4.05357 25.7902 3 28.0003 3H53.0003C55.2105 3 57.3301 4.05357 58.8929 5.92893C60.4557 7.8043 61.3337 10.3478 61.3337 13Z" fill="#D7E0FF"/>
<path d="M40.5 113C50.4456 113 59.9839 108.259 67.0165 99.8198C74.0491 91.3807 78 79.9347 78 68C78 56.0653 74.0491 44.6193 67.0165 36.1802C59.9839 27.7411 50.4456 23 40.5 23C30.5544 23 21.0161 27.7411 13.9835 36.1802C6.95088 44.6193 3 56.0653 3 68C3 79.9347 6.95088 91.3807 13.9835 99.8198C21.0161 108.259 30.5544 113 40.5 113Z" stroke="#4147D5" stroke-width="5" stroke-linecap="round" stroke-linejoin="round"/>
<path d="M61.3337 30.5V13C61.3337 10.3478 60.4557 7.8043 58.8929 5.92893C57.3301 4.05357 55.2105 3 53.0003 3H28.0003C25.7902 3 23.6706 4.05357 22.1078 5.92893C20.545 7.8043 19.667 10.3478 19.667 13V30.5" stroke="#4147D5" stroke-width="5" stroke-linecap="round" stroke-linejoin="round"/>
<path d="M61.3337 105.5V123C61.3337 125.652 60.4557 128.196 58.8929 130.071C57.3301 131.946 55.2105 133 53.0003 133H28.0003C25.7902 133 23.6706 131.946 22.1078 130.071C20.545 128.196 19.667 125.652 19.667 123V105.5" stroke="#4147D5" stroke-width="5" stroke-linecap="round" stroke-linejoin="round"/>
</svg>
